<svg width="1020" height="1211" viewBox="0 0 1020 1211" fill="none" xmlns="http://www.w3.org/2000/svg">
<path d="M199.327 96.8609C145.998 11.2576 66.0897 -20.3111 0 13.0419C119.827 70.4909 114.368 132.784 50.104 214.425C187.345 204.628 232.003 320.016 125.805 413.087C234.561 442.611 253.525 475.599 223.29 559.498C302.628 579.949 330.62 606.478 348.55 683.05C418.894 661.358 452.823 674.323 509.209 716.251C559.31 654.708 582.242 652.627 624.122 642.773C529.515 679.043 493.57 763.01 437.866 971.518C361.62 1142.97 222.745 1056.97 281.018 929.064C313.15 856.13 356.174 839.802 367.066 787.551C367.066 833.271 425.961 824.562 411.724 780.476C400.286 745.054 393.311 724.518 379.592 686.315C355.549 709.325 338.574 723.861 305.526 751.085C273.938 780.476 312.061 807.69 332.756 780.476C311.476 829.837 267.948 838.714 235.271 899.128C195.658 965.815 187.165 1002.73 208.041 1067.31C234.182 1142.97 284.83 1162.56 367.066 1162.56C462.373 1158.75 558.224 1035.2 570.75 942.127C573.281 990.544 575.787 1014.29 587.088 1035.2C597.511 1054.67 598.64 1070.03 598.525 1099.42C590.681 1155.4 591.677 1180.3 609.417 1205.56C614.323 1176.42 617.598 1163.93 625.756 1158.75C627.185 1181.26 631.755 1192.21 641.549 1211C654.168 1193.53 660.428 1182.82 667.146 1158.75C677.008 1172.08 674.448 1187.62 674.226 1211L674.315 1210.9C692.228 1191.37 701.393 1181.38 692.198 1093.98C672.592 1071.66 668.235 1051.53 641.549 1018.87C641.707 991.085 642.081 972.733 641.549 937.228C698.733 878.446 837.064 889.876 884.99 937.228C889.285 930.809 888.952 921.807 884.99 899.128C893.902 897.939 899.418 905.846 908.952 914.913L909.123 913.847C912.491 892.773 914.432 880.633 892.069 859.94L918.211 868.649C926.924 850.688 918.211 839.021 895.337 828.916C857.436 812.174 808.872 819.115 707.447 840.346C845.778 806.601 880.088 613.926 771.711 604.673C849.045 592.699 916.032 583.146 930.737 593.788C946.53 605.218 920.389 637.875 930.737 683.05C941.509 664.048 947.837 653.994 962.324 642.773C968.547 659.733 964.153 672.035 957.967 693.391C975.905 677.38 984.09 666.072 992.278 637.875C1000.64 659.296 1000.52 672.86 1001.54 696.657C1030.94 646.583 1030.23 577.467 962.324 543.17C937.272 531.196 863.378 536.484 851.224 528.474C866.867 499.174 871.133 473.353 885.534 450.642C892.232 438.175 906.229 441.934 916.577 450.642C909.441 489.516 913.654 498.241 925.291 507.247C930.831 487.795 934.311 477.755 949.253 478.401C965.397 479.098 964.389 491.543 962.397 516.148L962.324 517.044C975.395 501.805 990.644 482.211 992.278 473.502L1004.8 487.653C1023.32 429.416 953.61 395.217 885.534 406.556C853.947 411.817 821.27 477.856 797.852 487.653C761.908 485.476 676.404 410.366 686.752 370.089C711.259 337.977 793.495 334.167 797.852 359.203C816.369 349.951 841.22 316.694 814.735 299.333C799.486 321.104 758.328 318.71 740.668 296.067C759.185 260.689 802.754 256.879 818.003 285.726C833.481 273.334 836.325 263.431 828.895 239.462L833.252 189.933C775.693 239.348 745.567 250.072 698.733 214.425C674.585 199.888 650.808 193.198 610.507 202.995C594.713 195.92 576.357 175.413 563.67 150.2C556.819 198.105 563.67 234.564 588.178 269.397C591.729 281.932 590.143 287.571 583.276 296.067C572.384 309.13 539.163 324.37 522.825 370.089H534.806C543.241 392.491 527.726 384.785 522.825 450.642L534.806 445.744C555.501 469.692 527.726 465.882 559.313 528.474L568.027 517.044C582.617 538.602 595.268 549.775 624.122 564.941C559.313 545.347 572.929 573.65 534.806 573.65C497.773 567.662 459.112 542.626 448.758 528.474C404.849 468.46 390.407 419.074 405.189 370.089C425.884 301.51 452.025 280.283 522.825 301.51C531.538 233.475 488.742 165.112 364.888 168.161C294.055 165.753 213.907 120.265 199.327 96.8609Z" fill="url(#paint0_linear_70_18)"/>
<defs>
<linearGradient id="paint0_linear_70_18" x1="510" y1="76.5" x2="510" y2="1067.76" gradientUnits="userSpaceOnUse">
<stop/>
<stop offset="1" stop-color="white"/>
</linearGradient>
</defs>
</svg>
